# xmcd
#
# Track frame offsets: 
#        150
#        11987
#        24800
#        37600
#        50480
#        63487
#        76265
#        88300
#        99630
#        112752
#        125785
#        138072
#        150787
#        162695
#        174667
#        188685
#        200142
#        211045
#        223200
#        234950
#        247635
#        259975
#        273327
#        285937
#        298812
#        311487
#        324202
#        335145
#
# Disc length: 4629 seconds
#
# Revision: 6
# Processed by: cddbd v1.5.2PL0 Copyright (c) Steve Scherf et al.
# Submitted via: ExactAudioCopyFreeDBPlugin 1.0
#
DISCID=8612131c
DTITLE=Various Artist - Roots n' Blues:  The Retrospective, 1925-1950
DTITLE=[box set]
DYEAR=1992
DGENRE=Blues
TTITLE0=Frank Edwards - We Got to Get Together
TTITLE1=The Sweet Violet Boys - You Got to See Mama Ev'ry Night (Or Yo
TTITLE1=u Can't See Mama at All)
TTITLE2=Humbard Family - I'll Fly Away
TTITLE3=Tony Kollins - Cross Cut Saw Blues
TTITLE4=Peter Cleighton - Black Snake Blues
TTITLE5=Black Cats and The Kitten - Step it Up and Go
TTITLE6=Bob and Randall Atcher - Papa's Going Crazy, Mama's Going Mad
TTITLE7=Adolf Hofner and His San Antonians - Cotton-Eyed Joe
TTITLE8=Poor Boy Burke - Old Vets Blues
TTITLE9=Little Son Joe - Black Rat Swing
TTITLE10=Big Maceo Merriweather - Macy Special
TTITLE11=The Light Crust Doughboys and J.B. Brinkley - It's Funny What L
TTITLE11=ove Will Make You Do
TTITLE12=Hank Penny and His Radio Cowboys - Army Blues
TTITLE13=James (Beale Street) Clark - Who But You
TTITLE14=Homer Harris - Tomorrow May Be Too Late
TTITLE15=Muddy Waters (as McKinley Morganfield) - Burying Ground Blues
TTITLE16=Bill Monroe and His Blue Grass Boys - Goodbye Old Pal
TTITLE17=Gene Autry - Dixie Cannonball
TTITLE18=Bill Landford and The Landfordaires - Run on for a Long Time
TTITLE19=Joe Williams - Baby, Please Don't Go
TTITLE20=Sister Myrtle Fields, accompanied by Austin Mccoy Trio - I'm 
TTITLE20=Toiling
TTITLE21=Willie (Boodle It) Right - Two By Four Blues
TTITLE22=The Bailes Bros. - You Can't Go Halfway (And Get In)
TTITLE23=Molly O'Day and The Cumberland Mountain Folks - Heaven's Radi
TTITLE23=o
TTITLE24=Rosetta Howard - Plow Hand Blues
TTITLE25=Memphis Seven - Grunt Meat Blues
TTITLE26=The Deep South Boys - Until I Found the Lord
TTITLE27=Brother Porter and Brother Cook - I Know My Jesus Won't Deny 
TTITLE27=Me
EXTD=
EXTT0=Frank Edwards
EXTT1=Sweet Violet Boys
EXTT2=The Humbard Family
EXTT3=Tony Hollins
EXTT4=
EXTT5=Black Cats and The Kitten
EXTT6=Bob and Randall Atcher
EXTT7=Adolf Hofner and His San Antonians
EXTT8=Poor Boy Burke
EXTT9=Little Son Joe
EXTT10=Big Maceo Merriweather
EXTT11=Light Crust Doughboys, with J. B. Brinkley
EXTT12=Hank Penny and His Radio Cowboys
EXTT13=James (Beale Street) Clark
EXTT14=Homer Harris
EXTT15=Muddy Waters (as McKinley Morganfield)
EXTT16=Bill Monroe and His Blue Grass Boys
EXTT17=Gene Autry
EXTT18=Bill Landford and The Landfordaires
EXTT19=Joe Williams
EXTT20=Sister Myrtle Fields, accompanied by Austin McCoy Trio
EXTT21=Willie (Boodle it) Right
EXTT22=Bailes Bros.
EXTT23=Molly O' Day and The Cumberland Mountain Folks
EXTT24=Rosetta Howard
EXTT25=Memphis Seven
EXTT26=Deep South Boys
EXTT27=Brother Porter and Brother Cook
PLAYORDER=
